<mxfile host="app.diagrams.net" modified="2023-04-13T15:37:44.795Z" agent="Mozilla/5.0 (X11; Ubuntu; Linux x86_64; rv:109.0) Gecko/20100101 Firefox/111.0" etag="xrwBHErxRtQ6HOQTPFCq" version="21.1.5" type="device" pages="4">
  <diagram id="fC97jBpM_xTiCUfCGoVt" name="interface">
    <mxGraphModel dx="1362" dy="766" grid="1" gridSize="10" guides="1" tooltips="1" connect="1" arrows="1" fold="1" page="1" pageScale="1" pageWidth="850" pageHeight="1100" math="0" shadow="0">
      <root>
        <mxCell id="0" />
        <mxCell id="1" parent="0" />
        <mxCell id="tyazFwi2D3Fx87An2y98-1" value="" style="rounded=0;whiteSpace=wrap;html=1;" parent="1" vertex="1">
          <mxGeometry x="240" y="200" width="320" height="360" as="geometry" />
        </mxCell>
        <mxCell id="tyazFwi2D3Fx87An2y98-3" value="&lt;font style=&quot;font-size: 15px&quot;&gt;address&lt;/font&gt;" style="text;html=1;align=left;verticalAlign=middle;resizable=0;points=[];autosize=1;strokeColor=none;fillColor=none;" parent="1" vertex="1">
          <mxGeometry x="245" y="230" width="70" height="20" as="geometry" />
        </mxCell>
        <mxCell id="tyazFwi2D3Fx87An2y98-4" value="&lt;div&gt;readdata&lt;/div&gt;" style="text;html=1;align=left;verticalAlign=middle;resizable=0;points=[];autosize=1;strokeColor=none;fillColor=none;fontSize=15;" parent="1" vertex="1">
          <mxGeometry x="245" y="270" width="70" height="20" as="geometry" />
        </mxCell>
        <mxCell id="tyazFwi2D3Fx87An2y98-7" value="&lt;div&gt;read&lt;/div&gt;" style="text;html=1;align=left;verticalAlign=middle;resizable=0;points=[];autosize=1;strokeColor=none;fillColor=none;fontSize=15;" parent="1" vertex="1">
          <mxGeometry x="245" y="350" width="50" height="20" as="geometry" />
        </mxCell>
        <mxCell id="tyazFwi2D3Fx87An2y98-8" value="writedata" style="text;html=1;align=left;verticalAlign=middle;resizable=0;points=[];autosize=1;strokeColor=none;fillColor=none;fontSize=15;" parent="1" vertex="1">
          <mxGeometry x="245" y="310" width="80" height="20" as="geometry" />
        </mxCell>
        <mxCell id="tyazFwi2D3Fx87An2y98-9" value="write" style="text;html=1;align=left;verticalAlign=middle;resizable=0;points=[];autosize=1;strokeColor=none;fillColor=none;fontSize=15;" parent="1" vertex="1">
          <mxGeometry x="245" y="390" width="50" height="20" as="geometry" />
        </mxCell>
        <mxCell id="tyazFwi2D3Fx87An2y98-10" value="waitrequest" style="text;html=1;align=left;verticalAlign=middle;resizable=0;points=[];autosize=1;strokeColor=none;fillColor=none;fontSize=15;" parent="1" vertex="1">
          <mxGeometry x="245" y="430" width="90" height="20" as="geometry" />
        </mxCell>
        <mxCell id="tyazFwi2D3Fx87An2y98-11" value="clk" style="text;html=1;align=left;verticalAlign=middle;resizable=0;points=[];autosize=1;strokeColor=none;fillColor=none;fontSize=15;" parent="1" vertex="1">
          <mxGeometry x="245" y="470" width="30" height="20" as="geometry" />
        </mxCell>
        <mxCell id="tyazFwi2D3Fx87An2y98-13" value="hbus_d" style="text;html=1;align=right;verticalAlign=middle;resizable=0;points=[];autosize=1;strokeColor=none;fillColor=none;fontSize=15;" parent="1" vertex="1">
          <mxGeometry x="495" y="270" width="60" height="20" as="geometry" />
        </mxCell>
        <mxCell id="tyazFwi2D3Fx87An2y98-14" value="hbus_cs" style="text;html=1;align=right;verticalAlign=middle;resizable=0;points=[];autosize=1;strokeColor=none;fillColor=none;fontSize=15;" parent="1" vertex="1">
          <mxGeometry x="485" y="350" width="70" height="20" as="geometry" />
        </mxCell>
        <mxCell id="tyazFwi2D3Fx87An2y98-15" value="hbus_ck" style="text;html=1;align=right;verticalAlign=middle;resizable=0;points=[];autosize=1;strokeColor=none;fillColor=none;fontSize=15;" parent="1" vertex="1">
          <mxGeometry x="485" y="430" width="70" height="20" as="geometry" />
        </mxCell>
        <mxCell id="tyazFwi2D3Fx87An2y98-16" value="&lt;div&gt;hbus_rst&lt;/div&gt;" style="text;html=1;align=right;verticalAlign=middle;resizable=0;points=[];autosize=1;strokeColor=none;fillColor=none;fontSize=15;" parent="1" vertex="1">
          <mxGeometry x="485" y="390" width="70" height="20" as="geometry" />
        </mxCell>
        <mxCell id="tyazFwi2D3Fx87An2y98-17" value="&lt;div&gt;hbus_rwds&lt;/div&gt;" style="text;html=1;align=right;verticalAlign=middle;resizable=0;points=[];autosize=1;strokeColor=none;fillColor=none;fontSize=15;" parent="1" vertex="1">
          <mxGeometry x="465" y="310" width="90" height="20" as="geometry" />
        </mxCell>
        <mxCell id="tyazFwi2D3Fx87An2y98-18" value="AvalonMM_hyperRamS27KL0641_interface" style="rounded=0;whiteSpace=wrap;html=1;fontSize=15;" parent="1" vertex="1">
          <mxGeometry x="240" y="160" width="320" height="40" as="geometry" />
        </mxCell>
        <mxCell id="tyazFwi2D3Fx87An2y98-27" value="" style="endArrow=classic;html=1;rounded=0;fontSize=15;" parent="1" edge="1">
          <mxGeometry width="50" height="50" relative="1" as="geometry">
            <mxPoint x="560" y="440" as="sourcePoint" />
            <mxPoint x="620" y="440" as="targetPoint" />
          </mxGeometry>
        </mxCell>
        <mxCell id="tyazFwi2D3Fx87An2y98-29" value="1" style="text;html=1;align=center;verticalAlign=middle;resizable=0;points=[];autosize=1;strokeColor=none;fillColor=none;fontSize=15;" parent="1" vertex="1">
          <mxGeometry x="580" y="420" width="20" height="20" as="geometry" />
        </mxCell>
        <mxCell id="tyazFwi2D3Fx87An2y98-30" value="" style="endArrow=classic;html=1;rounded=0;fontSize=15;" parent="1" edge="1">
          <mxGeometry width="50" height="50" relative="1" as="geometry">
            <mxPoint x="560" y="399.9999999999999" as="sourcePoint" />
            <mxPoint x="620" y="399.9999999999999" as="targetPoint" />
          </mxGeometry>
        </mxCell>
        <mxCell id="tyazFwi2D3Fx87An2y98-31" value="1" style="text;html=1;align=center;verticalAlign=middle;resizable=0;points=[];autosize=1;strokeColor=none;fillColor=none;fontSize=15;" parent="1" vertex="1">
          <mxGeometry x="580" y="380" width="20" height="20" as="geometry" />
        </mxCell>
        <mxCell id="tyazFwi2D3Fx87An2y98-32" value="" style="endArrow=classic;html=1;rounded=0;fontSize=15;" parent="1" edge="1">
          <mxGeometry width="50" height="50" relative="1" as="geometry">
            <mxPoint x="560" y="359.9999999999999" as="sourcePoint" />
            <mxPoint x="620" y="359.9999999999999" as="targetPoint" />
          </mxGeometry>
        </mxCell>
        <mxCell id="tyazFwi2D3Fx87An2y98-33" value="1" style="text;html=1;align=center;verticalAlign=middle;resizable=0;points=[];autosize=1;strokeColor=none;fillColor=none;fontSize=15;" parent="1" vertex="1">
          <mxGeometry x="580" y="340" width="20" height="20" as="geometry" />
        </mxCell>
        <mxCell id="tyazFwi2D3Fx87An2y98-34" value="" style="endArrow=classic;html=1;rounded=0;fontSize=15;startArrow=classic;startFill=1;" parent="1" edge="1">
          <mxGeometry width="50" height="50" relative="1" as="geometry">
            <mxPoint x="560" y="319.9999999999999" as="sourcePoint" />
            <mxPoint x="620" y="319.9999999999999" as="targetPoint" />
          </mxGeometry>
        </mxCell>
        <mxCell id="tyazFwi2D3Fx87An2y98-35" value="1" style="text;html=1;align=center;verticalAlign=middle;resizable=0;points=[];autosize=1;strokeColor=none;fillColor=none;fontSize=15;" parent="1" vertex="1">
          <mxGeometry x="580" y="300" width="20" height="20" as="geometry" />
        </mxCell>
        <mxCell id="tyazFwi2D3Fx87An2y98-38" value="" style="endArrow=classic;html=1;rounded=0;fontSize=15;" parent="1" edge="1">
          <mxGeometry width="50" height="50" relative="1" as="geometry">
            <mxPoint x="180" y="479.9999999999999" as="sourcePoint" />
            <mxPoint x="240" y="479.9999999999999" as="targetPoint" />
          </mxGeometry>
        </mxCell>
        <mxCell id="tyazFwi2D3Fx87An2y98-39" value="1" style="text;html=1;align=center;verticalAlign=middle;resizable=0;points=[];autosize=1;strokeColor=none;fillColor=none;fontSize=15;" parent="1" vertex="1">
          <mxGeometry x="200" y="460" width="20" height="20" as="geometry" />
        </mxCell>
        <mxCell id="tyazFwi2D3Fx87An2y98-40" value="" style="endArrow=classic;html=1;rounded=0;fontSize=15;" parent="1" edge="1">
          <mxGeometry width="50" height="50" relative="1" as="geometry">
            <mxPoint x="240" y="439.3099999999999" as="sourcePoint" />
            <mxPoint x="180" y="439.3099999999999" as="targetPoint" />
          </mxGeometry>
        </mxCell>
        <mxCell id="tyazFwi2D3Fx87An2y98-41" value="1" style="text;html=1;align=center;verticalAlign=middle;resizable=0;points=[];autosize=1;strokeColor=none;fillColor=none;fontSize=15;" parent="1" vertex="1">
          <mxGeometry x="200" y="419.31" width="20" height="20" as="geometry" />
        </mxCell>
        <mxCell id="tyazFwi2D3Fx87An2y98-42" value="" style="endArrow=classic;html=1;rounded=0;fontSize=15;" parent="1" edge="1">
          <mxGeometry width="50" height="50" relative="1" as="geometry">
            <mxPoint x="180" y="399.3099999999999" as="sourcePoint" />
            <mxPoint x="240" y="399.3099999999999" as="targetPoint" />
          </mxGeometry>
        </mxCell>
        <mxCell id="tyazFwi2D3Fx87An2y98-43" value="1" style="text;html=1;align=center;verticalAlign=middle;resizable=0;points=[];autosize=1;strokeColor=none;fillColor=none;fontSize=15;" parent="1" vertex="1">
          <mxGeometry x="200" y="379.31" width="20" height="20" as="geometry" />
        </mxCell>
        <mxCell id="tyazFwi2D3Fx87An2y98-44" value="" style="endArrow=classic;html=1;rounded=0;fontSize=15;" parent="1" edge="1">
          <mxGeometry width="50" height="50" relative="1" as="geometry">
            <mxPoint x="180" y="359.3099999999999" as="sourcePoint" />
            <mxPoint x="240" y="359.3099999999999" as="targetPoint" />
          </mxGeometry>
        </mxCell>
        <mxCell id="tyazFwi2D3Fx87An2y98-45" value="1" style="text;html=1;align=center;verticalAlign=middle;resizable=0;points=[];autosize=1;strokeColor=none;fillColor=none;fontSize=15;" parent="1" vertex="1">
          <mxGeometry x="200" y="339.31" width="20" height="20" as="geometry" />
        </mxCell>
        <mxCell id="tyazFwi2D3Fx87An2y98-46" value="" style="endArrow=classic;html=1;rounded=0;fontSize=15;" parent="1" edge="1">
          <mxGeometry width="50" height="50" relative="1" as="geometry">
            <mxPoint x="180" y="319.3099999999999" as="sourcePoint" />
            <mxPoint x="240" y="319.3099999999999" as="targetPoint" />
          </mxGeometry>
        </mxCell>
        <mxCell id="tyazFwi2D3Fx87An2y98-48" value="" style="endArrow=classic;html=1;rounded=0;fontSize=15;startArrow=classic;startFill=1;" parent="1" edge="1">
          <mxGeometry width="50" height="50" relative="1" as="geometry">
            <mxPoint x="560" y="279.9999999999999" as="sourcePoint" />
            <mxPoint x="620" y="279.9999999999999" as="targetPoint" />
          </mxGeometry>
        </mxCell>
        <mxCell id="tyazFwi2D3Fx87An2y98-49" value="8" style="text;html=1;align=center;verticalAlign=middle;resizable=0;points=[];autosize=1;strokeColor=none;fillColor=none;fontSize=15;" parent="1" vertex="1">
          <mxGeometry x="580" y="260" width="20" height="20" as="geometry" />
        </mxCell>
        <mxCell id="tyazFwi2D3Fx87An2y98-50" value="" style="endArrow=classic;html=1;rounded=0;fontSize=15;" parent="1" edge="1">
          <mxGeometry width="50" height="50" relative="1" as="geometry">
            <mxPoint x="240" y="280.00000000000006" as="sourcePoint" />
            <mxPoint x="180" y="280.00000000000006" as="targetPoint" />
          </mxGeometry>
        </mxCell>
        <mxCell id="tyazFwi2D3Fx87An2y98-51" value="" style="endArrow=classic;html=1;rounded=0;fontSize=15;" parent="1" edge="1">
          <mxGeometry width="50" height="50" relative="1" as="geometry">
            <mxPoint x="180" y="239.65999999999988" as="sourcePoint" />
            <mxPoint x="240" y="239.65999999999988" as="targetPoint" />
          </mxGeometry>
        </mxCell>
        <mxCell id="tyazFwi2D3Fx87An2y98-52" value="32" style="text;html=1;align=center;verticalAlign=middle;resizable=0;points=[];autosize=1;strokeColor=none;fillColor=none;fontSize=15;" parent="1" vertex="1">
          <mxGeometry x="195" y="220" width="30" height="20" as="geometry" />
        </mxCell>
        <mxCell id="tyazFwi2D3Fx87An2y98-53" value="16" style="text;html=1;align=center;verticalAlign=middle;resizable=0;points=[];autosize=1;strokeColor=none;fillColor=none;fontSize=15;" parent="1" vertex="1">
          <mxGeometry x="195" y="260" width="30" height="20" as="geometry" />
        </mxCell>
        <mxCell id="tyazFwi2D3Fx87An2y98-54" value="16" style="text;html=1;align=center;verticalAlign=middle;resizable=0;points=[];autosize=1;strokeColor=none;fillColor=none;fontSize=15;" parent="1" vertex="1">
          <mxGeometry x="195" y="300" width="30" height="20" as="geometry" />
        </mxCell>
        <mxCell id="KE8zLy7gZJcdXnEcFr7T-1" value="rst" style="text;html=1;align=left;verticalAlign=middle;resizable=0;points=[];autosize=1;strokeColor=none;fillColor=none;fontSize=15;" parent="1" vertex="1">
          <mxGeometry x="245" y="505" width="40" height="30" as="geometry" />
        </mxCell>
        <mxCell id="KE8zLy7gZJcdXnEcFr7T-2" value="" style="endArrow=classic;html=1;rounded=0;fontSize=15;" parent="1" edge="1">
          <mxGeometry width="50" height="50" relative="1" as="geometry">
            <mxPoint x="180" y="519.9999999999999" as="sourcePoint" />
            <mxPoint x="240" y="519.9999999999999" as="targetPoint" />
          </mxGeometry>
        </mxCell>
        <mxCell id="KE8zLy7gZJcdXnEcFr7T-3" value="1" style="text;html=1;align=center;verticalAlign=middle;resizable=0;points=[];autosize=1;strokeColor=none;fillColor=none;fontSize=15;" parent="1" vertex="1">
          <mxGeometry x="200" y="500" width="20" height="20" as="geometry" />
        </mxCell>
      </root>
    </mxGraphModel>
  </diagram>
  <diagram id="yq9ThTIYmJ8oE_fTDe8D" name="rtl_avalonside">
    <mxGraphModel dx="1362" dy="766" grid="1" gridSize="10" guides="1" tooltips="1" connect="1" arrows="1" fold="1" page="1" pageScale="1" pageWidth="850" pageHeight="1100" math="0" shadow="0">
      <root>
        <mxCell id="0" />
        <mxCell id="1" parent="0" />
        <mxCell id="Cc1m1OQpfrByYmy1fPa8-23" style="edgeStyle=orthogonalEdgeStyle;rounded=0;orthogonalLoop=1;jettySize=auto;html=1;exitX=1;exitY=0.5;exitDx=0;exitDy=0;" parent="1" source="GzKZy17YXw-0YZu24kbl-1" edge="1">
          <mxGeometry relative="1" as="geometry">
            <mxPoint x="470" y="720" as="targetPoint" />
            <Array as="points">
              <mxPoint x="740" y="720" />
            </Array>
          </mxGeometry>
        </mxCell>
        <mxCell id="3Ys-GUd5AFpZ6mR2ey75-7" style="edgeStyle=orthogonalEdgeStyle;rounded=0;orthogonalLoop=1;jettySize=auto;html=1;exitX=1;exitY=0.5;exitDx=0;exitDy=0;" parent="1" source="GzKZy17YXw-0YZu24kbl-1" edge="1">
          <mxGeometry relative="1" as="geometry">
            <mxPoint x="1000" y="720" as="targetPoint" />
            <Array as="points">
              <mxPoint x="740" y="720" />
            </Array>
          </mxGeometry>
        </mxCell>
        <mxCell id="zwswLqQRbULFyvP92xVR-2" style="edgeStyle=orthogonalEdgeStyle;rounded=0;orthogonalLoop=1;jettySize=auto;html=1;exitX=0.5;exitY=0;exitDx=0;exitDy=0;entryX=0.5;entryY=0;entryDx=0;entryDy=0;" parent="1" target="GzKZy17YXw-0YZu24kbl-1" edge="1">
          <mxGeometry relative="1" as="geometry">
            <mxPoint x="940" y="140" as="sourcePoint" />
            <Array as="points">
              <mxPoint x="940" y="660" />
            </Array>
          </mxGeometry>
        </mxCell>
        <mxCell id="GzKZy17YXw-0YZu24kbl-1" value="DATA" style="rounded=0;whiteSpace=wrap;html=1;horizontal=0;rotation=90;" parent="1" vertex="1">
          <mxGeometry x="720" y="600" width="40" height="120" as="geometry" />
        </mxCell>
        <mxCell id="3Ys-GUd5AFpZ6mR2ey75-6" style="edgeStyle=orthogonalEdgeStyle;rounded=0;orthogonalLoop=1;jettySize=auto;html=1;exitX=1;exitY=0.5;exitDx=0;exitDy=0;" parent="1" source="w7Hnu-EpSJomGSt-TZSk-1" edge="1">
          <mxGeometry relative="1" as="geometry">
            <mxPoint x="1000" y="400" as="targetPoint" />
          </mxGeometry>
        </mxCell>
        <mxCell id="w7Hnu-EpSJomGSt-TZSk-1" value="&lt;div&gt;ADDRESS&lt;/div&gt;" style="rounded=0;whiteSpace=wrap;html=1;horizontal=0;" parent="1" vertex="1">
          <mxGeometry x="720" y="340" width="40" height="120" as="geometry" />
        </mxCell>
        <mxCell id="Cc1m1OQpfrByYmy1fPa8-1" value="&lt;font style=&quot;font-size: 15px;&quot;&gt;avs_s0_&lt;font style=&quot;font-size: 15px;&quot;&gt;address&lt;/font&gt;&lt;/font&gt;" style="text;html=1;align=right;verticalAlign=middle;resizable=0;points=[];autosize=1;strokeColor=none;fillColor=none;" parent="1" vertex="1">
          <mxGeometry x="325" y="385" width="130" height="30" as="geometry" />
        </mxCell>
        <mxCell id="Cc1m1OQpfrByYmy1fPa8-2" value="avs_s0_readdata" style="text;html=1;align=right;verticalAlign=middle;resizable=0;points=[];autosize=1;strokeColor=none;fillColor=none;fontSize=15;" parent="1" vertex="1">
          <mxGeometry x="315" y="705" width="140" height="30" as="geometry" />
        </mxCell>
        <mxCell id="Cc1m1OQpfrByYmy1fPa8-3" value="avs_s0_read" style="text;html=1;align=right;verticalAlign=middle;resizable=0;points=[];autosize=1;strokeColor=none;fillColor=none;fontSize=15;" parent="1" vertex="1">
          <mxGeometry x="345" y="805" width="110" height="30" as="geometry" />
        </mxCell>
        <mxCell id="Cc1m1OQpfrByYmy1fPa8-4" value="avs_s0_writedata" style="text;html=1;align=right;verticalAlign=middle;resizable=0;points=[];autosize=1;strokeColor=none;fillColor=none;fontSize=15;" parent="1" vertex="1">
          <mxGeometry x="317.5" y="505" width="140" height="30" as="geometry" />
        </mxCell>
        <mxCell id="Cc1m1OQpfrByYmy1fPa8-5" value="avs_s0_write" style="text;html=1;align=right;verticalAlign=middle;resizable=0;points=[];autosize=1;strokeColor=none;fillColor=none;fontSize=15;" parent="1" vertex="1">
          <mxGeometry x="345" y="845" width="110" height="30" as="geometry" />
        </mxCell>
        <mxCell id="Cc1m1OQpfrByYmy1fPa8-6" value="avs_s0_waitrequest" style="text;html=1;align=right;verticalAlign=middle;resizable=0;points=[];autosize=1;strokeColor=none;fillColor=none;fontSize=15;" parent="1" vertex="1">
          <mxGeometry x="295" y="265" width="160" height="30" as="geometry" />
        </mxCell>
        <mxCell id="Cc1m1OQpfrByYmy1fPa8-10" value="" style="endArrow=classic;html=1;rounded=0;fontSize=15;" parent="1" edge="1">
          <mxGeometry width="50" height="50" relative="1" as="geometry">
            <mxPoint x="620" y="140" as="sourcePoint" />
            <mxPoint x="470" y="280" as="targetPoint" />
            <Array as="points">
              <mxPoint x="620" y="280" />
            </Array>
          </mxGeometry>
        </mxCell>
        <mxCell id="Cc1m1OQpfrByYmy1fPa8-18" value="" style="endArrow=classic;html=1;rounded=0;fontSize=15;entryX=0;entryY=0.5;entryDx=0;entryDy=0;" parent="1" target="w7Hnu-EpSJomGSt-TZSk-1" edge="1">
          <mxGeometry width="50" height="50" relative="1" as="geometry">
            <mxPoint x="470" y="400" as="sourcePoint" />
            <mxPoint x="530" y="399.49999999999983" as="targetPoint" />
          </mxGeometry>
        </mxCell>
        <mxCell id="Cc1m1OQpfrByYmy1fPa8-19" value="32" style="text;html=1;align=center;verticalAlign=middle;resizable=0;points=[];autosize=1;strokeColor=none;fillColor=none;fontSize=15;" parent="1" vertex="1">
          <mxGeometry x="490" y="380" width="30" height="20" as="geometry" />
        </mxCell>
        <mxCell id="Cc1m1OQpfrByYmy1fPa8-20" value="16" style="text;html=1;align=center;verticalAlign=middle;resizable=0;points=[];autosize=1;strokeColor=none;fillColor=none;fontSize=15;" parent="1" vertex="1">
          <mxGeometry x="490" y="700" width="30" height="20" as="geometry" />
        </mxCell>
        <mxCell id="Cc1m1OQpfrByYmy1fPa8-21" value="16" style="text;html=1;align=center;verticalAlign=middle;resizable=0;points=[];autosize=1;strokeColor=none;fillColor=none;fontSize=15;" parent="1" vertex="1">
          <mxGeometry x="492.5" y="500" width="30" height="20" as="geometry" />
        </mxCell>
        <mxCell id="Cc1m1OQpfrByYmy1fPa8-22" value="" style="endArrow=classic;html=1;rounded=0;fontSize=15;entryX=0.75;entryY=1;entryDx=0;entryDy=0;" parent="1" target="WS0o1v0XqAf9nfpT-A0H-1" edge="1">
          <mxGeometry width="50" height="50" relative="1" as="geometry">
            <mxPoint x="472.5" y="520" as="sourcePoint" />
            <mxPoint x="632.5" y="460" as="targetPoint" />
            <Array as="points">
              <mxPoint x="710" y="520" />
            </Array>
          </mxGeometry>
        </mxCell>
        <mxCell id="3Ys-GUd5AFpZ6mR2ey75-1" value="" style="endArrow=classic;html=1;rounded=0;fontSize=15;" parent="1" edge="1">
          <mxGeometry width="50" height="50" relative="1" as="geometry">
            <mxPoint x="470" y="820" as="sourcePoint" />
            <mxPoint x="840" y="980" as="targetPoint" />
            <Array as="points">
              <mxPoint x="840" y="820" />
            </Array>
          </mxGeometry>
        </mxCell>
        <mxCell id="3Ys-GUd5AFpZ6mR2ey75-2" value="" style="triangle;whiteSpace=wrap;html=1;" parent="1" vertex="1">
          <mxGeometry x="680" y="670" width="10" height="10" as="geometry" />
        </mxCell>
        <mxCell id="3Ys-GUd5AFpZ6mR2ey75-3" value="" style="triangle;whiteSpace=wrap;html=1;direction=north;" parent="1" vertex="1">
          <mxGeometry x="720" y="450" width="10" height="10" as="geometry" />
        </mxCell>
        <mxCell id="3Ys-GUd5AFpZ6mR2ey75-4" value="" style="endArrow=classic;html=1;rounded=0;fontSize=15;" parent="1" edge="1">
          <mxGeometry width="50" height="50" relative="1" as="geometry">
            <mxPoint x="470" y="860" as="sourcePoint" />
            <mxPoint x="680" y="980" as="targetPoint" />
            <Array as="points">
              <mxPoint x="680" y="860" />
            </Array>
          </mxGeometry>
        </mxCell>
        <mxCell id="3Ys-GUd5AFpZ6mR2ey75-10" style="edgeStyle=orthogonalEdgeStyle;rounded=0;orthogonalLoop=1;jettySize=auto;html=1;entryX=0.75;entryY=0;entryDx=0;entryDy=0;" parent="1" target="3Ys-GUd5AFpZ6mR2ey75-5" edge="1">
          <mxGeometry relative="1" as="geometry">
            <mxPoint x="1170" y="340" as="targetPoint" />
            <mxPoint x="1150" y="140" as="sourcePoint" />
          </mxGeometry>
        </mxCell>
        <mxCell id="dtgHzQhXOISRXoaNGw8R-1" style="edgeStyle=orthogonalEdgeStyle;rounded=0;orthogonalLoop=1;jettySize=auto;html=1;exitX=0.5;exitY=1;exitDx=0;exitDy=0;" parent="1" source="3Ys-GUd5AFpZ6mR2ey75-5" edge="1">
          <mxGeometry relative="1" as="geometry">
            <mxPoint x="1100" y="980" as="targetPoint" />
          </mxGeometry>
        </mxCell>
        <mxCell id="3Ys-GUd5AFpZ6mR2ey75-5" value="MEM" style="rounded=0;whiteSpace=wrap;html=1;" parent="1" vertex="1">
          <mxGeometry x="1000" y="340" width="200" height="440" as="geometry" />
        </mxCell>
        <mxCell id="3Ys-GUd5AFpZ6mR2ey75-8" style="edgeStyle=orthogonalEdgeStyle;rounded=0;orthogonalLoop=1;jettySize=auto;html=1;entryX=0.25;entryY=1;entryDx=0;entryDy=0;" parent="1" target="WS0o1v0XqAf9nfpT-A0H-1" edge="1">
          <mxGeometry relative="1" as="geometry">
            <mxPoint x="840" y="500" as="targetPoint" />
            <mxPoint x="1000" y="520" as="sourcePoint" />
            <Array as="points">
              <mxPoint x="770" y="520" />
            </Array>
          </mxGeometry>
        </mxCell>
        <mxCell id="3Ys-GUd5AFpZ6mR2ey75-16" value="&lt;font style=&quot;font-size: 15px;&quot;&gt;ssram8_read&lt;/font&gt;" style="text;html=1;align=center;verticalAlign=middle;resizable=0;points=[];autosize=1;strokeColor=none;fillColor=none;" parent="1" vertex="1">
          <mxGeometry x="1095" y="105" width="110" height="30" as="geometry" />
        </mxCell>
        <mxCell id="ZwRu4uXXJ1gHSuZIARV1-1" value="" style="triangle;whiteSpace=wrap;html=1;" parent="1" vertex="1">
          <mxGeometry x="1000" y="770" width="10" height="10" as="geometry" />
        </mxCell>
        <mxCell id="dtgHzQhXOISRXoaNGw8R-3" value="&lt;font style=&quot;font-size: 15px;&quot;&gt;ssram8_&lt;font style=&quot;font-size: 15px;&quot;&gt;valid&lt;/font&gt;&lt;/font&gt;" style="text;html=1;align=center;verticalAlign=middle;resizable=0;points=[];autosize=1;strokeColor=none;fillColor=none;" parent="1" vertex="1">
          <mxGeometry x="1045" y="985" width="110" height="30" as="geometry" />
        </mxCell>
        <mxCell id="ywc1GMYzLM43me2shfip-1" value="&lt;font style=&quot;font-size: 15px;&quot;&gt;ssram8_write&lt;/font&gt;" style="text;html=1;align=center;verticalAlign=middle;resizable=0;points=[];autosize=1;strokeColor=none;fillColor=none;" parent="1" vertex="1">
          <mxGeometry x="995" y="105" width="110" height="30" as="geometry" />
        </mxCell>
        <mxCell id="ywc1GMYzLM43me2shfip-2" style="edgeStyle=orthogonalEdgeStyle;rounded=0;orthogonalLoop=1;jettySize=auto;html=1;entryX=0.25;entryY=0;entryDx=0;entryDy=0;" parent="1" target="3Ys-GUd5AFpZ6mR2ey75-5" edge="1">
          <mxGeometry relative="1" as="geometry">
            <mxPoint x="1105" y="330" as="targetPoint" />
            <mxPoint x="1050" y="140" as="sourcePoint" />
          </mxGeometry>
        </mxCell>
        <mxCell id="WS0o1v0XqAf9nfpT-A0H-2" style="edgeStyle=orthogonalEdgeStyle;rounded=0;orthogonalLoop=1;jettySize=auto;html=1;exitX=0.5;exitY=0;exitDx=0;exitDy=0;entryX=0;entryY=0.5;entryDx=0;entryDy=0;" parent="1" source="WS0o1v0XqAf9nfpT-A0H-1" target="GzKZy17YXw-0YZu24kbl-1" edge="1">
          <mxGeometry relative="1" as="geometry">
            <mxPoint x="740" y="620" as="sourcePoint" />
          </mxGeometry>
        </mxCell>
        <mxCell id="WS0o1v0XqAf9nfpT-A0H-5" style="edgeStyle=orthogonalEdgeStyle;rounded=0;orthogonalLoop=1;jettySize=auto;html=1;entryX=0;entryY=0.5;entryDx=0;entryDy=0;" parent="1" target="WS0o1v0XqAf9nfpT-A0H-1" edge="1">
          <mxGeometry relative="1" as="geometry">
            <mxPoint x="840" y="140" as="sourcePoint" />
            <Array as="points">
              <mxPoint x="840" y="140" />
              <mxPoint x="840" y="580" />
            </Array>
          </mxGeometry>
        </mxCell>
        <mxCell id="WS0o1v0XqAf9nfpT-A0H-1" value="" style="shape=trapezoid;perimeter=trapezoidPerimeter;whiteSpace=wrap;html=1;fixedSize=1;direction=west;" parent="1" vertex="1">
          <mxGeometry x="680" y="560" width="120" height="40" as="geometry" />
        </mxCell>
        <mxCell id="WS0o1v0XqAf9nfpT-A0H-3" value="0" style="text;html=1;align=center;verticalAlign=middle;resizable=0;points=[];autosize=1;strokeColor=none;fillColor=none;" parent="1" vertex="1">
          <mxGeometry x="695" y="555" width="30" height="30" as="geometry" />
        </mxCell>
        <mxCell id="WS0o1v0XqAf9nfpT-A0H-4" value="1" style="text;html=1;align=center;verticalAlign=middle;resizable=0;points=[];autosize=1;strokeColor=none;fillColor=none;" parent="1" vertex="1">
          <mxGeometry x="755" y="555" width="30" height="30" as="geometry" />
        </mxCell>
        <mxCell id="WS0o1v0XqAf9nfpT-A0H-6" value="&lt;font style=&quot;font-size: 15px;&quot;&gt;data_sel&lt;/font&gt;" style="text;html=1;align=center;verticalAlign=middle;resizable=0;points=[];autosize=1;strokeColor=none;fillColor=none;" parent="1" vertex="1">
          <mxGeometry x="800" y="105" width="80" height="30" as="geometry" />
        </mxCell>
        <mxCell id="zwswLqQRbULFyvP92xVR-1" value="&lt;font style=&quot;font-size: 15px;&quot;&gt;data_enable&lt;/font&gt;" style="text;html=1;align=center;verticalAlign=middle;resizable=0;points=[];autosize=1;strokeColor=none;fillColor=none;" parent="1" vertex="1">
          <mxGeometry x="885" y="105" width="110" height="30" as="geometry" />
        </mxCell>
        <mxCell id="cMcWismyhQRRuz9Rw0BF-1" value="avs_s0_waitrequest" style="text;html=1;align=right;verticalAlign=middle;resizable=0;points=[];autosize=1;strokeColor=none;fillColor=none;fontSize=15;" parent="1" vertex="1">
          <mxGeometry x="530" y="105" width="160" height="30" as="geometry" />
        </mxCell>
        <mxCell id="cMcWismyhQRRuz9Rw0BF-2" value="avs_s0_write" style="text;html=1;align=right;verticalAlign=middle;resizable=0;points=[];autosize=1;strokeColor=none;fillColor=none;fontSize=15;" parent="1" vertex="1">
          <mxGeometry x="620" y="985" width="110" height="30" as="geometry" />
        </mxCell>
        <mxCell id="cMcWismyhQRRuz9Rw0BF-3" value="avs_s0_read" style="text;html=1;align=right;verticalAlign=middle;resizable=0;points=[];autosize=1;strokeColor=none;fillColor=none;fontSize=15;" parent="1" vertex="1">
          <mxGeometry x="775" y="985" width="110" height="30" as="geometry" />
        </mxCell>
      </root>
    </mxGraphModel>
  </diagram>
  <diagram id="GnTmByVWZaReoa7QvFEv" name="fsm_avalonside_old">
    <mxGraphModel dx="1946" dy="1094" grid="1" gridSize="10" guides="1" tooltips="1" connect="1" arrows="1" fold="1" page="1" pageScale="1" pageWidth="850" pageHeight="1100" math="0" shadow="0">
      <root>
        <mxCell id="0" />
        <mxCell id="1" parent="0" />
        <mxCell id="KMi_HyCEqWDJWLltuoZL-17" style="edgeStyle=orthogonalEdgeStyle;rounded=0;orthogonalLoop=1;jettySize=auto;html=1;exitX=0.5;exitY=1;exitDx=0;exitDy=0;entryX=0.5;entryY=0;entryDx=0;entryDy=0;" parent="1" source="R0JgGIkLqa2GUiZ-NVq3-1" target="KMi_HyCEqWDJWLltuoZL-15" edge="1">
          <mxGeometry relative="1" as="geometry" />
        </mxCell>
        <mxCell id="R0JgGIkLqa2GUiZ-NVq3-1" value="&lt;div&gt;address_clr&lt;/div&gt;&lt;div&gt;data_clr&lt;/div&gt;&lt;div&gt;ssram8_clr&lt;br&gt;&lt;/div&gt;" style="rounded=0;whiteSpace=wrap;html=1;" parent="1" vertex="1">
          <mxGeometry x="300" y="140" width="120" height="60" as="geometry" />
        </mxCell>
        <mxCell id="ycqOjfbAlqQQoxK2BRp0-8" style="edgeStyle=orthogonalEdgeStyle;rounded=0;orthogonalLoop=1;jettySize=auto;html=1;exitX=0.5;exitY=0;exitDx=0;exitDy=0;entryX=0.5;entryY=0;entryDx=0;entryDy=0;dashed=1;" parent="1" edge="1">
          <mxGeometry relative="1" as="geometry">
            <mxPoint x="360" y="120" as="targetPoint" />
            <mxPoint x="359.9655172413793" y="60" as="sourcePoint" />
            <Array as="points">
              <mxPoint x="360" y="80" />
              <mxPoint x="360" y="80" />
            </Array>
          </mxGeometry>
        </mxCell>
        <mxCell id="ycqOjfbAlqQQoxK2BRp0-7" value="RESET" style="rounded=0;whiteSpace=wrap;html=1;" parent="1" vertex="1">
          <mxGeometry x="300" y="120" width="120" height="20" as="geometry" />
        </mxCell>
        <mxCell id="ycqOjfbAlqQQoxK2BRp0-9" value="rst" style="text;html=1;align=center;verticalAlign=middle;resizable=0;points=[];autosize=1;strokeColor=none;fillColor=none;" parent="1" vertex="1">
          <mxGeometry x="340" y="30" width="40" height="30" as="geometry" />
        </mxCell>
        <mxCell id="KMi_HyCEqWDJWLltuoZL-9" style="edgeStyle=orthogonalEdgeStyle;rounded=0;orthogonalLoop=1;jettySize=auto;html=1;exitX=1;exitY=0.5;exitDx=0;exitDy=0;entryX=0;entryY=0.5;entryDx=0;entryDy=0;" parent="1" source="KMi_HyCEqWDJWLltuoZL-2" target="KMi_HyCEqWDJWLltuoZL-4" edge="1">
          <mxGeometry relative="1" as="geometry">
            <Array as="points">
              <mxPoint x="450" y="500" />
              <mxPoint x="450" y="500" />
            </Array>
          </mxGeometry>
        </mxCell>
        <mxCell id="KMi_HyCEqWDJWLltuoZL-12" value="&lt;font color=&quot;#ff0000&quot;&gt;0&lt;/font&gt;" style="edgeLabel;html=1;align=center;verticalAlign=middle;resizable=0;points=[];" parent="KMi_HyCEqWDJWLltuoZL-9" vertex="1" connectable="0">
          <mxGeometry x="0.2922" relative="1" as="geometry">
            <mxPoint x="-9" as="offset" />
          </mxGeometry>
        </mxCell>
        <mxCell id="xTJoZhLFrkcvpyE8GXbO-3" style="edgeStyle=orthogonalEdgeStyle;rounded=0;orthogonalLoop=1;jettySize=auto;html=1;exitX=0.5;exitY=1;exitDx=0;exitDy=0;entryX=0.5;entryY=0;entryDx=0;entryDy=0;" parent="1" source="KMi_HyCEqWDJWLltuoZL-2" target="xTJoZhLFrkcvpyE8GXbO-2" edge="1">
          <mxGeometry relative="1" as="geometry" />
        </mxCell>
        <mxCell id="gEDDJrUj1DtWugklFc0m-7" value="1" style="edgeLabel;html=1;align=center;verticalAlign=middle;resizable=0;points=[];fontColor=#FF0000;" parent="xTJoZhLFrkcvpyE8GXbO-3" vertex="1" connectable="0">
          <mxGeometry x="-0.2722" y="-1" relative="1" as="geometry">
            <mxPoint y="3" as="offset" />
          </mxGeometry>
        </mxCell>
        <mxCell id="KMi_HyCEqWDJWLltuoZL-2" value="avs_s0_read" style="rhombus;whiteSpace=wrap;html=1;" parent="1" vertex="1">
          <mxGeometry x="310" y="460" width="100" height="80" as="geometry" />
        </mxCell>
        <mxCell id="KMi_HyCEqWDJWLltuoZL-10" style="edgeStyle=orthogonalEdgeStyle;rounded=0;orthogonalLoop=1;jettySize=auto;html=1;exitX=0.5;exitY=0;exitDx=0;exitDy=0;" parent="1" source="KMi_HyCEqWDJWLltuoZL-4" edge="1">
          <mxGeometry relative="1" as="geometry">
            <mxPoint x="360" y="260" as="targetPoint" />
            <Array as="points">
              <mxPoint x="520" y="260" />
              <mxPoint x="360" y="260" />
            </Array>
          </mxGeometry>
        </mxCell>
        <mxCell id="KMi_HyCEqWDJWLltuoZL-13" value="0" style="edgeLabel;html=1;align=center;verticalAlign=middle;resizable=0;points=[];fontColor=#FF0000;" parent="KMi_HyCEqWDJWLltuoZL-10" vertex="1" connectable="0">
          <mxGeometry x="-0.8564" y="-1" relative="1" as="geometry">
            <mxPoint x="-1" y="-12" as="offset" />
          </mxGeometry>
        </mxCell>
        <mxCell id="T_hmfosoiMGuWEzw17aT-3" style="edgeStyle=orthogonalEdgeStyle;rounded=0;orthogonalLoop=1;jettySize=auto;html=1;exitX=1;exitY=0.5;exitDx=0;exitDy=0;entryX=0.5;entryY=0;entryDx=0;entryDy=0;" parent="1" source="KMi_HyCEqWDJWLltuoZL-4" target="T_hmfosoiMGuWEzw17aT-2" edge="1">
          <mxGeometry relative="1" as="geometry" />
        </mxCell>
        <mxCell id="T_hmfosoiMGuWEzw17aT-4" value="1" style="edgeLabel;html=1;align=center;verticalAlign=middle;resizable=0;points=[];fontColor=#FF0000;" parent="T_hmfosoiMGuWEzw17aT-3" vertex="1" connectable="0">
          <mxGeometry x="-0.7706" y="-3" relative="1" as="geometry">
            <mxPoint x="-10" y="-3" as="offset" />
          </mxGeometry>
        </mxCell>
        <mxCell id="KMi_HyCEqWDJWLltuoZL-4" value="avs_s0_write" style="rhombus;whiteSpace=wrap;html=1;" parent="1" vertex="1">
          <mxGeometry x="470" y="460" width="100" height="80" as="geometry" />
        </mxCell>
        <mxCell id="KMi_HyCEqWDJWLltuoZL-8" value="&lt;div&gt;&lt;font color=&quot;#999999&quot;&gt;Se per qualche ragione read e &lt;br&gt;&lt;/font&gt;&lt;/div&gt;&lt;div&gt;&lt;font color=&quot;#999999&quot;&gt;write fossero entrambi attivi&lt;br&gt;&lt;/font&gt;&lt;/div&gt;&lt;div&gt;&lt;font color=&quot;#999999&quot;&gt;verrebbe data priorità alla &lt;br&gt;&lt;/font&gt;&lt;/div&gt;&lt;div&gt;&lt;font color=&quot;#999999&quot;&gt;lettura (non è una specifica,&lt;/font&gt;&lt;/div&gt;&lt;div&gt;&lt;font color=&quot;#999999&quot;&gt;in quanto questo dettaglio non&lt;/font&gt;&lt;/div&gt;&lt;div&gt;&lt;font color=&quot;#999999&quot;&gt;è proprio specificato).&lt;br&gt;&lt;/font&gt;&lt;/div&gt;" style="text;html=1;align=center;verticalAlign=middle;resizable=0;points=[];autosize=1;strokeColor=none;fillColor=none;" parent="1" vertex="1">
          <mxGeometry x="45" y="460" width="180" height="100" as="geometry" />
        </mxCell>
        <mxCell id="KMi_HyCEqWDJWLltuoZL-18" style="edgeStyle=orthogonalEdgeStyle;rounded=0;orthogonalLoop=1;jettySize=auto;html=1;exitX=0.5;exitY=1;exitDx=0;exitDy=0;entryX=0.5;entryY=0;entryDx=0;entryDy=0;" parent="1" source="KMi_HyCEqWDJWLltuoZL-14" target="KMi_HyCEqWDJWLltuoZL-2" edge="1">
          <mxGeometry relative="1" as="geometry" />
        </mxCell>
        <mxCell id="KMi_HyCEqWDJWLltuoZL-14" value="&lt;div&gt;address_en&lt;/div&gt;&lt;div&gt;data_enable&lt;br&gt;&lt;/div&gt;" style="rounded=0;whiteSpace=wrap;html=1;" parent="1" vertex="1">
          <mxGeometry x="300" y="340" width="120" height="60" as="geometry" />
        </mxCell>
        <mxCell id="KMi_HyCEqWDJWLltuoZL-15" value="IDLE" style="rounded=0;whiteSpace=wrap;html=1;" parent="1" vertex="1">
          <mxGeometry x="300" y="320" width="120" height="20" as="geometry" />
        </mxCell>
        <mxCell id="gEDDJrUj1DtWugklFc0m-2" style="edgeStyle=orthogonalEdgeStyle;rounded=0;orthogonalLoop=1;jettySize=auto;html=1;exitX=0.5;exitY=1;exitDx=0;exitDy=0;entryX=0.5;entryY=0;entryDx=0;entryDy=0;" parent="1" source="xTJoZhLFrkcvpyE8GXbO-1" target="gEDDJrUj1DtWugklFc0m-1" edge="1">
          <mxGeometry relative="1" as="geometry" />
        </mxCell>
        <mxCell id="xTJoZhLFrkcvpyE8GXbO-1" value="&lt;div&gt;avs_s0_waitrequest&lt;/div&gt;&lt;div&gt;ssram8_read&lt;br&gt;&lt;/div&gt;" style="rounded=0;whiteSpace=wrap;html=1;" parent="1" vertex="1">
          <mxGeometry x="300" y="620" width="120" height="60" as="geometry" />
        </mxCell>
        <mxCell id="xTJoZhLFrkcvpyE8GXbO-2" value="READING" style="rounded=0;whiteSpace=wrap;html=1;" parent="1" vertex="1">
          <mxGeometry x="300" y="600" width="120" height="20" as="geometry" />
        </mxCell>
        <mxCell id="xTJoZhLFrkcvpyE8GXbO-4" value="&lt;div&gt;&lt;font color=&quot;#999999&quot;&gt;Una volta iniziato un ciclo di lettura&lt;/font&gt;&lt;/div&gt;&lt;div&gt;&lt;font color=&quot;#999999&quot;&gt;o scrittura, i segnali di ingresso devono &lt;br&gt;&lt;/font&gt;&lt;/div&gt;&lt;div&gt;&lt;font color=&quot;#999999&quot;&gt;rimanere costanti da specifiche. &lt;br&gt;&lt;/font&gt;&lt;/div&gt;&lt;div&gt;&lt;font color=&quot;#999999&quot;&gt;Per questo motivo, possiamo smettere&lt;/font&gt;&lt;/div&gt;&lt;div&gt;&lt;font color=&quot;#999999&quot;&gt;di campionare indirizzo e dato senza&lt;/font&gt;&lt;/div&gt;&lt;div&gt;&lt;font color=&quot;#999999&quot;&gt;rischiare di perdere informazioni.&lt;br&gt;&lt;/font&gt;&lt;/div&gt;" style="text;html=1;align=center;verticalAlign=middle;resizable=0;points=[];autosize=1;strokeColor=none;fillColor=none;" parent="1" vertex="1">
          <mxGeometry x="20" y="590" width="230" height="100" as="geometry" />
        </mxCell>
        <mxCell id="gEDDJrUj1DtWugklFc0m-5" style="edgeStyle=orthogonalEdgeStyle;rounded=0;orthogonalLoop=1;jettySize=auto;html=1;exitX=0.5;exitY=1;exitDx=0;exitDy=0;entryX=0.5;entryY=0;entryDx=0;entryDy=0;" parent="1" source="gEDDJrUj1DtWugklFc0m-1" target="gEDDJrUj1DtWugklFc0m-4" edge="1">
          <mxGeometry relative="1" as="geometry" />
        </mxCell>
        <mxCell id="gEDDJrUj1DtWugklFc0m-6" value="0" style="edgeLabel;html=1;align=center;verticalAlign=middle;resizable=0;points=[];fontColor=#FF0000;" parent="gEDDJrUj1DtWugklFc0m-5" vertex="1" connectable="0">
          <mxGeometry x="-0.2306" relative="1" as="geometry">
            <mxPoint y="7" as="offset" />
          </mxGeometry>
        </mxCell>
        <mxCell id="_98CrxE66E2yxlAtbzK5-3" style="edgeStyle=orthogonalEdgeStyle;rounded=0;orthogonalLoop=1;jettySize=auto;html=1;exitX=1;exitY=0.5;exitDx=0;exitDy=0;" parent="1" source="gEDDJrUj1DtWugklFc0m-1" edge="1">
          <mxGeometry relative="1" as="geometry">
            <mxPoint x="460" y="800" as="targetPoint" />
          </mxGeometry>
        </mxCell>
        <mxCell id="_98CrxE66E2yxlAtbzK5-4" value="1" style="edgeLabel;html=1;align=center;verticalAlign=middle;resizable=0;points=[];fontColor=#FF0000;" parent="_98CrxE66E2yxlAtbzK5-3" vertex="1" connectable="0">
          <mxGeometry x="-0.2917" relative="1" as="geometry">
            <mxPoint x="4" as="offset" />
          </mxGeometry>
        </mxCell>
        <mxCell id="gEDDJrUj1DtWugklFc0m-1" value="ssram8_valid" style="rhombus;whiteSpace=wrap;html=1;" parent="1" vertex="1">
          <mxGeometry x="310" y="760" width="100" height="80" as="geometry" />
        </mxCell>
        <mxCell id="gEDDJrUj1DtWugklFc0m-8" style="edgeStyle=orthogonalEdgeStyle;rounded=0;orthogonalLoop=1;jettySize=auto;html=1;exitX=0.5;exitY=1;exitDx=0;exitDy=0;" parent="1" source="gEDDJrUj1DtWugklFc0m-3" edge="1">
          <mxGeometry relative="1" as="geometry">
            <mxPoint x="359.73913043478274" y="720" as="targetPoint" />
            <Array as="points">
              <mxPoint x="360" y="1040" />
              <mxPoint x="240" y="1040" />
              <mxPoint x="240" y="720" />
            </Array>
          </mxGeometry>
        </mxCell>
        <mxCell id="gEDDJrUj1DtWugklFc0m-3" value="avs_s0_waitrequest" style="rounded=0;whiteSpace=wrap;html=1;" parent="1" vertex="1">
          <mxGeometry x="300" y="920" width="120" height="60" as="geometry" />
        </mxCell>
        <mxCell id="gEDDJrUj1DtWugklFc0m-4" value="WAIT_READING" style="rounded=0;whiteSpace=wrap;html=1;" parent="1" vertex="1">
          <mxGeometry x="300" y="900" width="120" height="20" as="geometry" />
        </mxCell>
        <mxCell id="_98CrxE66E2yxlAtbzK5-1" value="&lt;div&gt;avs_s0_waitrequest&lt;/div&gt;&lt;div&gt;data_enable&lt;br&gt;&lt;/div&gt;&lt;div&gt;data_sel&lt;br&gt;&lt;/div&gt;" style="rounded=0;whiteSpace=wrap;html=1;" parent="1" vertex="1">
          <mxGeometry x="460" y="780" width="120" height="60" as="geometry" />
        </mxCell>
        <mxCell id="_98CrxE66E2yxlAtbzK5-2" value="STORE_READING" style="rounded=0;whiteSpace=wrap;html=1;" parent="1" vertex="1">
          <mxGeometry x="460" y="760" width="120" height="20" as="geometry" />
        </mxCell>
        <mxCell id="vTdRBB-YQgJ8a52eUrzx-2" value="" style="endArrow=classic;html=1;rounded=0;edgeStyle=orthogonalEdgeStyle;" parent="1" edge="1">
          <mxGeometry width="50" height="50" relative="1" as="geometry">
            <mxPoint x="580" y="800" as="sourcePoint" />
            <mxPoint x="520" y="260" as="targetPoint" />
            <Array as="points">
              <mxPoint x="640" y="800" />
              <mxPoint x="640" y="260" />
            </Array>
          </mxGeometry>
        </mxCell>
        <mxCell id="T_hmfosoiMGuWEzw17aT-12" style="edgeStyle=orthogonalEdgeStyle;rounded=0;orthogonalLoop=1;jettySize=auto;html=1;exitX=0.5;exitY=1;exitDx=0;exitDy=0;entryX=0.5;entryY=0;entryDx=0;entryDy=0;" parent="1" source="T_hmfosoiMGuWEzw17aT-1" target="T_hmfosoiMGuWEzw17aT-9" edge="1">
          <mxGeometry relative="1" as="geometry" />
        </mxCell>
        <mxCell id="T_hmfosoiMGuWEzw17aT-1" value="&lt;div&gt;avs_s0_waitrequest&lt;/div&gt;&lt;div&gt;ssram8_write&lt;br&gt;&lt;/div&gt;" style="rounded=0;whiteSpace=wrap;html=1;" parent="1" vertex="1">
          <mxGeometry x="760.05" y="620" width="120" height="60" as="geometry" />
        </mxCell>
        <mxCell id="T_hmfosoiMGuWEzw17aT-2" value="WRITING" style="rounded=0;whiteSpace=wrap;html=1;" parent="1" vertex="1">
          <mxGeometry x="760.05" y="600" width="120" height="20" as="geometry" />
        </mxCell>
        <mxCell id="T_hmfosoiMGuWEzw17aT-5" style="edgeStyle=orthogonalEdgeStyle;rounded=0;orthogonalLoop=1;jettySize=auto;html=1;exitX=0.5;exitY=1;exitDx=0;exitDy=0;entryX=0.5;entryY=0;entryDx=0;entryDy=0;" parent="1" source="T_hmfosoiMGuWEzw17aT-9" target="T_hmfosoiMGuWEzw17aT-11" edge="1">
          <mxGeometry relative="1" as="geometry" />
        </mxCell>
        <mxCell id="T_hmfosoiMGuWEzw17aT-6" value="0" style="edgeLabel;html=1;align=center;verticalAlign=middle;resizable=0;points=[];fontColor=#FF0000;" parent="T_hmfosoiMGuWEzw17aT-5" vertex="1" connectable="0">
          <mxGeometry x="-0.2306" relative="1" as="geometry">
            <mxPoint y="7" as="offset" />
          </mxGeometry>
        </mxCell>
        <mxCell id="T_hmfosoiMGuWEzw17aT-7" style="edgeStyle=orthogonalEdgeStyle;rounded=0;orthogonalLoop=1;jettySize=auto;html=1;exitX=1;exitY=0.5;exitDx=0;exitDy=0;" parent="1" source="T_hmfosoiMGuWEzw17aT-9" edge="1">
          <mxGeometry relative="1" as="geometry">
            <mxPoint x="640" y="260" as="targetPoint" />
            <Array as="points">
              <mxPoint x="940" y="800" />
              <mxPoint x="940" y="260" />
            </Array>
          </mxGeometry>
        </mxCell>
        <mxCell id="T_hmfosoiMGuWEzw17aT-8" value="1" style="edgeLabel;html=1;align=center;verticalAlign=middle;resizable=0;points=[];fontColor=#FF0000;" parent="T_hmfosoiMGuWEzw17aT-7" vertex="1" connectable="0">
          <mxGeometry x="-0.2917" relative="1" as="geometry">
            <mxPoint x="-40" y="253" as="offset" />
          </mxGeometry>
        </mxCell>
        <mxCell id="T_hmfosoiMGuWEzw17aT-9" value="ssram8_valid" style="rhombus;whiteSpace=wrap;html=1;" parent="1" vertex="1">
          <mxGeometry x="770" y="760" width="100" height="80" as="geometry" />
        </mxCell>
        <mxCell id="T_hmfosoiMGuWEzw17aT-13" style="edgeStyle=orthogonalEdgeStyle;rounded=0;orthogonalLoop=1;jettySize=auto;html=1;exitX=0.5;exitY=1;exitDx=0;exitDy=0;" parent="1" source="T_hmfosoiMGuWEzw17aT-10" edge="1">
          <mxGeometry relative="1" as="geometry">
            <mxPoint x="819.7907407407406" y="720" as="targetPoint" />
            <Array as="points">
              <mxPoint x="820.05" y="1040" />
              <mxPoint x="700.05" y="1040" />
              <mxPoint x="700.05" y="720" />
            </Array>
          </mxGeometry>
        </mxCell>
        <mxCell id="T_hmfosoiMGuWEzw17aT-10" value="&lt;div&gt;avs_s0_waitrequest&lt;/div&gt;" style="rounded=0;whiteSpace=wrap;html=1;" parent="1" vertex="1">
          <mxGeometry x="760.05" y="920" width="120" height="60" as="geometry" />
        </mxCell>
        <mxCell id="T_hmfosoiMGuWEzw17aT-11" value="WAIT_WRITING" style="rounded=0;whiteSpace=wrap;html=1;" parent="1" vertex="1">
          <mxGeometry x="760.05" y="900" width="120" height="20" as="geometry" />
        </mxCell>
      </root>
    </mxGraphModel>
  </diagram>
  <diagram name="fsm_avalonside" id="7cOUtxpOADkt3iQJw6D3">
    <mxGraphModel dx="1362" dy="766" grid="1" gridSize="10" guides="1" tooltips="1" connect="1" arrows="1" fold="1" page="1" pageScale="1" pageWidth="850" pageHeight="1100" math="0" shadow="0">
      <root>
        <mxCell id="gHbopcMJqhLfQALP6Ct7-0" />
        <mxCell id="gHbopcMJqhLfQALP6Ct7-1" parent="gHbopcMJqhLfQALP6Ct7-0" />
        <mxCell id="gHbopcMJqhLfQALP6Ct7-2" style="edgeStyle=orthogonalEdgeStyle;rounded=0;orthogonalLoop=1;jettySize=auto;html=1;exitX=0.5;exitY=1;exitDx=0;exitDy=0;entryX=0.5;entryY=0;entryDx=0;entryDy=0;" edge="1" parent="gHbopcMJqhLfQALP6Ct7-1" source="gHbopcMJqhLfQALP6Ct7-3" target="gHbopcMJqhLfQALP6Ct7-20">
          <mxGeometry relative="1" as="geometry" />
        </mxCell>
        <mxCell id="gHbopcMJqhLfQALP6Ct7-3" value="&lt;div&gt;address_clr&lt;/div&gt;&lt;div&gt;data_clr&lt;/div&gt;&lt;div&gt;ssram8_clr&lt;br&gt;&lt;/div&gt;" style="rounded=0;whiteSpace=wrap;html=1;" vertex="1" parent="gHbopcMJqhLfQALP6Ct7-1">
          <mxGeometry x="300" y="140" width="120" height="60" as="geometry" />
        </mxCell>
        <mxCell id="gHbopcMJqhLfQALP6Ct7-4" style="edgeStyle=orthogonalEdgeStyle;rounded=0;orthogonalLoop=1;jettySize=auto;html=1;exitX=0.5;exitY=0;exitDx=0;exitDy=0;entryX=0.5;entryY=0;entryDx=0;entryDy=0;dashed=1;" edge="1" parent="gHbopcMJqhLfQALP6Ct7-1">
          <mxGeometry relative="1" as="geometry">
            <mxPoint x="360" y="120" as="targetPoint" />
            <mxPoint x="359.9655172413793" y="60" as="sourcePoint" />
            <Array as="points">
              <mxPoint x="360" y="80" />
              <mxPoint x="360" y="80" />
            </Array>
          </mxGeometry>
        </mxCell>
        <mxCell id="gHbopcMJqhLfQALP6Ct7-5" value="RESET" style="rounded=0;whiteSpace=wrap;html=1;" vertex="1" parent="gHbopcMJqhLfQALP6Ct7-1">
          <mxGeometry x="300" y="120" width="120" height="20" as="geometry" />
        </mxCell>
        <mxCell id="gHbopcMJqhLfQALP6Ct7-6" value="rst" style="text;html=1;align=center;verticalAlign=middle;resizable=0;points=[];autosize=1;strokeColor=none;fillColor=none;" vertex="1" parent="gHbopcMJqhLfQALP6Ct7-1">
          <mxGeometry x="340" y="30" width="40" height="30" as="geometry" />
        </mxCell>
        <mxCell id="gHbopcMJqhLfQALP6Ct7-7" style="edgeStyle=orthogonalEdgeStyle;rounded=0;orthogonalLoop=1;jettySize=auto;html=1;exitX=1;exitY=0.5;exitDx=0;exitDy=0;entryX=0;entryY=0.5;entryDx=0;entryDy=0;" edge="1" parent="gHbopcMJqhLfQALP6Ct7-1" source="gHbopcMJqhLfQALP6Ct7-11" target="gHbopcMJqhLfQALP6Ct7-16">
          <mxGeometry relative="1" as="geometry">
            <Array as="points">
              <mxPoint x="450" y="500" />
              <mxPoint x="450" y="500" />
            </Array>
          </mxGeometry>
        </mxCell>
        <mxCell id="gHbopcMJqhLfQALP6Ct7-8" value="&lt;font color=&quot;#ff0000&quot;&gt;0&lt;/font&gt;" style="edgeLabel;html=1;align=center;verticalAlign=middle;resizable=0;points=[];" vertex="1" connectable="0" parent="gHbopcMJqhLfQALP6Ct7-7">
          <mxGeometry x="0.2922" relative="1" as="geometry">
            <mxPoint x="-9" as="offset" />
          </mxGeometry>
        </mxCell>
        <mxCell id="gHbopcMJqhLfQALP6Ct7-9" style="edgeStyle=orthogonalEdgeStyle;rounded=0;orthogonalLoop=1;jettySize=auto;html=1;exitX=0.5;exitY=1;exitDx=0;exitDy=0;entryX=0.5;entryY=0;entryDx=0;entryDy=0;" edge="1" parent="gHbopcMJqhLfQALP6Ct7-1" source="gHbopcMJqhLfQALP6Ct7-11" target="gHbopcMJqhLfQALP6Ct7-23">
          <mxGeometry relative="1" as="geometry" />
        </mxCell>
        <mxCell id="gHbopcMJqhLfQALP6Ct7-10" value="1" style="edgeLabel;html=1;align=center;verticalAlign=middle;resizable=0;points=[];fontColor=#FF0000;" vertex="1" connectable="0" parent="gHbopcMJqhLfQALP6Ct7-9">
          <mxGeometry x="-0.2722" y="-1" relative="1" as="geometry">
            <mxPoint y="3" as="offset" />
          </mxGeometry>
        </mxCell>
        <mxCell id="gHbopcMJqhLfQALP6Ct7-11" value="avs_s0_read" style="rhombus;whiteSpace=wrap;html=1;" vertex="1" parent="gHbopcMJqhLfQALP6Ct7-1">
          <mxGeometry x="310" y="460" width="100" height="80" as="geometry" />
        </mxCell>
        <mxCell id="gHbopcMJqhLfQALP6Ct7-12" style="edgeStyle=orthogonalEdgeStyle;rounded=0;orthogonalLoop=1;jettySize=auto;html=1;exitX=0.5;exitY=0;exitDx=0;exitDy=0;" edge="1" parent="gHbopcMJqhLfQALP6Ct7-1" source="gHbopcMJqhLfQALP6Ct7-16">
          <mxGeometry relative="1" as="geometry">
            <mxPoint x="360" y="260" as="targetPoint" />
            <Array as="points">
              <mxPoint x="520" y="260" />
              <mxPoint x="360" y="260" />
            </Array>
          </mxGeometry>
        </mxCell>
        <mxCell id="gHbopcMJqhLfQALP6Ct7-13" value="0" style="edgeLabel;html=1;align=center;verticalAlign=middle;resizable=0;points=[];fontColor=#FF0000;" vertex="1" connectable="0" parent="gHbopcMJqhLfQALP6Ct7-12">
          <mxGeometry x="-0.8564" y="-1" relative="1" as="geometry">
            <mxPoint x="-1" y="-12" as="offset" />
          </mxGeometry>
        </mxCell>
        <mxCell id="gHbopcMJqhLfQALP6Ct7-14" style="edgeStyle=orthogonalEdgeStyle;rounded=0;orthogonalLoop=1;jettySize=auto;html=1;exitX=1;exitY=0.5;exitDx=0;exitDy=0;entryX=0.5;entryY=0;entryDx=0;entryDy=0;" edge="1" parent="gHbopcMJqhLfQALP6Ct7-1" source="gHbopcMJqhLfQALP6Ct7-16" target="gHbopcMJqhLfQALP6Ct7-38">
          <mxGeometry relative="1" as="geometry" />
        </mxCell>
        <mxCell id="gHbopcMJqhLfQALP6Ct7-15" value="1" style="edgeLabel;html=1;align=center;verticalAlign=middle;resizable=0;points=[];fontColor=#FF0000;" vertex="1" connectable="0" parent="gHbopcMJqhLfQALP6Ct7-14">
          <mxGeometry x="-0.7706" y="-3" relative="1" as="geometry">
            <mxPoint x="-10" y="-3" as="offset" />
          </mxGeometry>
        </mxCell>
        <mxCell id="gHbopcMJqhLfQALP6Ct7-16" value="avs_s0_write" style="rhombus;whiteSpace=wrap;html=1;" vertex="1" parent="gHbopcMJqhLfQALP6Ct7-1">
          <mxGeometry x="470" y="460" width="100" height="80" as="geometry" />
        </mxCell>
        <mxCell id="gHbopcMJqhLfQALP6Ct7-17" value="&lt;div&gt;&lt;font color=&quot;#999999&quot;&gt;Se per qualche ragione read e &lt;br&gt;&lt;/font&gt;&lt;/div&gt;&lt;div&gt;&lt;font color=&quot;#999999&quot;&gt;write fossero entrambi attivi&lt;br&gt;&lt;/font&gt;&lt;/div&gt;&lt;div&gt;&lt;font color=&quot;#999999&quot;&gt;verrebbe data priorità alla &lt;br&gt;&lt;/font&gt;&lt;/div&gt;&lt;div&gt;&lt;font color=&quot;#999999&quot;&gt;lettura (non è una specifica,&lt;/font&gt;&lt;/div&gt;&lt;div&gt;&lt;font color=&quot;#999999&quot;&gt;in quanto questo dettaglio non&lt;/font&gt;&lt;/div&gt;&lt;div&gt;&lt;font color=&quot;#999999&quot;&gt;è proprio specificato).&lt;br&gt;&lt;/font&gt;&lt;/div&gt;" style="text;html=1;align=center;verticalAlign=middle;resizable=0;points=[];autosize=1;strokeColor=none;fillColor=none;" vertex="1" parent="gHbopcMJqhLfQALP6Ct7-1">
          <mxGeometry x="45" y="460" width="180" height="100" as="geometry" />
        </mxCell>
        <mxCell id="gHbopcMJqhLfQALP6Ct7-18" style="edgeStyle=orthogonalEdgeStyle;rounded=0;orthogonalLoop=1;jettySize=auto;html=1;exitX=0.5;exitY=1;exitDx=0;exitDy=0;entryX=0.5;entryY=0;entryDx=0;entryDy=0;" edge="1" parent="gHbopcMJqhLfQALP6Ct7-1" source="gHbopcMJqhLfQALP6Ct7-19" target="gHbopcMJqhLfQALP6Ct7-11">
          <mxGeometry relative="1" as="geometry" />
        </mxCell>
        <mxCell id="gHbopcMJqhLfQALP6Ct7-19" value="" style="rounded=0;whiteSpace=wrap;html=1;" vertex="1" parent="gHbopcMJqhLfQALP6Ct7-1">
          <mxGeometry x="300" y="340" width="120" height="60" as="geometry" />
        </mxCell>
        <mxCell id="gHbopcMJqhLfQALP6Ct7-20" value="IDLE" style="rounded=0;whiteSpace=wrap;html=1;" vertex="1" parent="gHbopcMJqhLfQALP6Ct7-1">
          <mxGeometry x="300" y="320" width="120" height="20" as="geometry" />
        </mxCell>
        <mxCell id="gHbopcMJqhLfQALP6Ct7-21" style="edgeStyle=orthogonalEdgeStyle;rounded=0;orthogonalLoop=1;jettySize=auto;html=1;exitX=0.5;exitY=1;exitDx=0;exitDy=0;entryX=0.5;entryY=0;entryDx=0;entryDy=0;" edge="1" parent="gHbopcMJqhLfQALP6Ct7-1" source="gHbopcMJqhLfQALP6Ct7-22" target="gHbopcMJqhLfQALP6Ct7-29">
          <mxGeometry relative="1" as="geometry" />
        </mxCell>
        <mxCell id="gHbopcMJqhLfQALP6Ct7-22" value="" style="rounded=0;whiteSpace=wrap;html=1;" vertex="1" parent="gHbopcMJqhLfQALP6Ct7-1">
          <mxGeometry x="300" y="620" width="120" height="60" as="geometry" />
        </mxCell>
        <mxCell id="gHbopcMJqhLfQALP6Ct7-23" value="READING" style="rounded=0;whiteSpace=wrap;html=1;" vertex="1" parent="gHbopcMJqhLfQALP6Ct7-1">
          <mxGeometry x="300" y="600" width="120" height="20" as="geometry" />
        </mxCell>
        <mxCell id="gHbopcMJqhLfQALP6Ct7-24" value="&lt;div&gt;&lt;font color=&quot;#999999&quot;&gt;Una volta iniziato un ciclo di lettura&lt;/font&gt;&lt;/div&gt;&lt;div&gt;&lt;font color=&quot;#999999&quot;&gt;o scrittura, i segnali di ingresso devono &lt;br&gt;&lt;/font&gt;&lt;/div&gt;&lt;div&gt;&lt;font color=&quot;#999999&quot;&gt;rimanere costanti da specifiche. &lt;br&gt;&lt;/font&gt;&lt;/div&gt;&lt;div&gt;&lt;font color=&quot;#999999&quot;&gt;Per questo motivo, possiamo smettere&lt;/font&gt;&lt;/div&gt;&lt;div&gt;&lt;font color=&quot;#999999&quot;&gt;di campionare indirizzo e dato senza&lt;/font&gt;&lt;/div&gt;&lt;div&gt;&lt;font color=&quot;#999999&quot;&gt;rischiare di perdere informazioni.&lt;br&gt;&lt;/font&gt;&lt;/div&gt;" style="text;html=1;align=center;verticalAlign=middle;resizable=0;points=[];autosize=1;strokeColor=none;fillColor=none;" vertex="1" parent="gHbopcMJqhLfQALP6Ct7-1">
          <mxGeometry x="20" y="590" width="230" height="100" as="geometry" />
        </mxCell>
        <mxCell id="gHbopcMJqhLfQALP6Ct7-25" style="edgeStyle=orthogonalEdgeStyle;rounded=0;orthogonalLoop=1;jettySize=auto;html=1;exitX=0.5;exitY=1;exitDx=0;exitDy=0;entryX=0.5;entryY=0;entryDx=0;entryDy=0;" edge="1" parent="gHbopcMJqhLfQALP6Ct7-1" source="gHbopcMJqhLfQALP6Ct7-29" target="gHbopcMJqhLfQALP6Ct7-32">
          <mxGeometry relative="1" as="geometry" />
        </mxCell>
        <mxCell id="gHbopcMJqhLfQALP6Ct7-26" value="0" style="edgeLabel;html=1;align=center;verticalAlign=middle;resizable=0;points=[];fontColor=#FF0000;" vertex="1" connectable="0" parent="gHbopcMJqhLfQALP6Ct7-25">
          <mxGeometry x="-0.2306" relative="1" as="geometry">
            <mxPoint y="7" as="offset" />
          </mxGeometry>
        </mxCell>
        <mxCell id="gHbopcMJqhLfQALP6Ct7-27" style="edgeStyle=orthogonalEdgeStyle;rounded=0;orthogonalLoop=1;jettySize=auto;html=1;exitX=1;exitY=0.5;exitDx=0;exitDy=0;" edge="1" parent="gHbopcMJqhLfQALP6Ct7-1" source="gHbopcMJqhLfQALP6Ct7-29">
          <mxGeometry relative="1" as="geometry">
            <mxPoint x="460" y="800" as="targetPoint" />
          </mxGeometry>
        </mxCell>
        <mxCell id="gHbopcMJqhLfQALP6Ct7-28" value="1" style="edgeLabel;html=1;align=center;verticalAlign=middle;resizable=0;points=[];fontColor=#FF0000;" vertex="1" connectable="0" parent="gHbopcMJqhLfQALP6Ct7-27">
          <mxGeometry x="-0.2917" relative="1" as="geometry">
            <mxPoint x="4" as="offset" />
          </mxGeometry>
        </mxCell>
        <mxCell id="gHbopcMJqhLfQALP6Ct7-29" value="ssram8_valid" style="rhombus;whiteSpace=wrap;html=1;" vertex="1" parent="gHbopcMJqhLfQALP6Ct7-1">
          <mxGeometry x="310" y="760" width="100" height="80" as="geometry" />
        </mxCell>
        <mxCell id="gHbopcMJqhLfQALP6Ct7-30" style="edgeStyle=orthogonalEdgeStyle;rounded=0;orthogonalLoop=1;jettySize=auto;html=1;exitX=0.5;exitY=1;exitDx=0;exitDy=0;" edge="1" parent="gHbopcMJqhLfQALP6Ct7-1" source="gHbopcMJqhLfQALP6Ct7-31">
          <mxGeometry relative="1" as="geometry">
            <mxPoint x="359.73913043478274" y="720" as="targetPoint" />
            <Array as="points">
              <mxPoint x="360" y="1040" />
              <mxPoint x="240" y="1040" />
              <mxPoint x="240" y="720" />
            </Array>
          </mxGeometry>
        </mxCell>
        <mxCell id="gHbopcMJqhLfQALP6Ct7-31" value="" style="rounded=0;whiteSpace=wrap;html=1;" vertex="1" parent="gHbopcMJqhLfQALP6Ct7-1">
          <mxGeometry x="300" y="920" width="120" height="60" as="geometry" />
        </mxCell>
        <mxCell id="gHbopcMJqhLfQALP6Ct7-32" value="WAIT_READING" style="rounded=0;whiteSpace=wrap;html=1;" vertex="1" parent="gHbopcMJqhLfQALP6Ct7-1">
          <mxGeometry x="300" y="900" width="120" height="20" as="geometry" />
        </mxCell>
        <mxCell id="gHbopcMJqhLfQALP6Ct7-33" value="" style="rounded=0;whiteSpace=wrap;html=1;" vertex="1" parent="gHbopcMJqhLfQALP6Ct7-1">
          <mxGeometry x="460" y="780" width="120" height="60" as="geometry" />
        </mxCell>
        <mxCell id="gHbopcMJqhLfQALP6Ct7-34" value="STORE_READING" style="rounded=0;whiteSpace=wrap;html=1;" vertex="1" parent="gHbopcMJqhLfQALP6Ct7-1">
          <mxGeometry x="460" y="760" width="120" height="20" as="geometry" />
        </mxCell>
        <mxCell id="gHbopcMJqhLfQALP6Ct7-35" value="" style="endArrow=classic;html=1;rounded=0;edgeStyle=orthogonalEdgeStyle;" edge="1" parent="gHbopcMJqhLfQALP6Ct7-1">
          <mxGeometry width="50" height="50" relative="1" as="geometry">
            <mxPoint x="580" y="800" as="sourcePoint" />
            <mxPoint x="520" y="260" as="targetPoint" />
            <Array as="points">
              <mxPoint x="640" y="800" />
              <mxPoint x="640" y="260" />
            </Array>
          </mxGeometry>
        </mxCell>
        <mxCell id="gHbopcMJqhLfQALP6Ct7-36" style="edgeStyle=orthogonalEdgeStyle;rounded=0;orthogonalLoop=1;jettySize=auto;html=1;exitX=0.5;exitY=1;exitDx=0;exitDy=0;entryX=0.5;entryY=0;entryDx=0;entryDy=0;" edge="1" parent="gHbopcMJqhLfQALP6Ct7-1" source="gHbopcMJqhLfQALP6Ct7-37" target="gHbopcMJqhLfQALP6Ct7-43">
          <mxGeometry relative="1" as="geometry" />
        </mxCell>
        <mxCell id="gHbopcMJqhLfQALP6Ct7-37" value="" style="rounded=0;whiteSpace=wrap;html=1;" vertex="1" parent="gHbopcMJqhLfQALP6Ct7-1">
          <mxGeometry x="760.05" y="620" width="120" height="60" as="geometry" />
        </mxCell>
        <mxCell id="gHbopcMJqhLfQALP6Ct7-38" value="WRITING" style="rounded=0;whiteSpace=wrap;html=1;" vertex="1" parent="gHbopcMJqhLfQALP6Ct7-1">
          <mxGeometry x="760.05" y="600" width="120" height="20" as="geometry" />
        </mxCell>
        <mxCell id="gHbopcMJqhLfQALP6Ct7-39" style="edgeStyle=orthogonalEdgeStyle;rounded=0;orthogonalLoop=1;jettySize=auto;html=1;exitX=0.5;exitY=1;exitDx=0;exitDy=0;entryX=0.5;entryY=0;entryDx=0;entryDy=0;" edge="1" parent="gHbopcMJqhLfQALP6Ct7-1" source="gHbopcMJqhLfQALP6Ct7-43" target="gHbopcMJqhLfQALP6Ct7-46">
          <mxGeometry relative="1" as="geometry" />
        </mxCell>
        <mxCell id="gHbopcMJqhLfQALP6Ct7-40" value="0" style="edgeLabel;html=1;align=center;verticalAlign=middle;resizable=0;points=[];fontColor=#FF0000;" vertex="1" connectable="0" parent="gHbopcMJqhLfQALP6Ct7-39">
          <mxGeometry x="-0.2306" relative="1" as="geometry">
            <mxPoint y="7" as="offset" />
          </mxGeometry>
        </mxCell>
        <mxCell id="gHbopcMJqhLfQALP6Ct7-41" style="edgeStyle=orthogonalEdgeStyle;rounded=0;orthogonalLoop=1;jettySize=auto;html=1;exitX=1;exitY=0.5;exitDx=0;exitDy=0;" edge="1" parent="gHbopcMJqhLfQALP6Ct7-1" source="gHbopcMJqhLfQALP6Ct7-43">
          <mxGeometry relative="1" as="geometry">
            <mxPoint x="640" y="260" as="targetPoint" />
            <Array as="points">
              <mxPoint x="940" y="800" />
              <mxPoint x="940" y="260" />
            </Array>
          </mxGeometry>
        </mxCell>
        <mxCell id="gHbopcMJqhLfQALP6Ct7-42" value="1" style="edgeLabel;html=1;align=center;verticalAlign=middle;resizable=0;points=[];fontColor=#FF0000;" vertex="1" connectable="0" parent="gHbopcMJqhLfQALP6Ct7-41">
          <mxGeometry x="-0.2917" relative="1" as="geometry">
            <mxPoint x="-40" y="253" as="offset" />
          </mxGeometry>
        </mxCell>
        <mxCell id="gHbopcMJqhLfQALP6Ct7-43" value="ssram8_valid" style="rhombus;whiteSpace=wrap;html=1;" vertex="1" parent="gHbopcMJqhLfQALP6Ct7-1">
          <mxGeometry x="770" y="760" width="100" height="80" as="geometry" />
        </mxCell>
        <mxCell id="gHbopcMJqhLfQALP6Ct7-44" style="edgeStyle=orthogonalEdgeStyle;rounded=0;orthogonalLoop=1;jettySize=auto;html=1;exitX=0.5;exitY=1;exitDx=0;exitDy=0;" edge="1" parent="gHbopcMJqhLfQALP6Ct7-1" source="gHbopcMJqhLfQALP6Ct7-45">
          <mxGeometry relative="1" as="geometry">
            <mxPoint x="819.7907407407406" y="720" as="targetPoint" />
            <Array as="points">
              <mxPoint x="820.05" y="1040" />
              <mxPoint x="700.05" y="1040" />
              <mxPoint x="700.05" y="720" />
            </Array>
          </mxGeometry>
        </mxCell>
        <mxCell id="gHbopcMJqhLfQALP6Ct7-45" value="" style="rounded=0;whiteSpace=wrap;html=1;" vertex="1" parent="gHbopcMJqhLfQALP6Ct7-1">
          <mxGeometry x="760.05" y="920" width="120" height="60" as="geometry" />
        </mxCell>
        <mxCell id="gHbopcMJqhLfQALP6Ct7-46" value="WAIT_WRITING" style="rounded=0;whiteSpace=wrap;html=1;" vertex="1" parent="gHbopcMJqhLfQALP6Ct7-1">
          <mxGeometry x="760.05" y="900" width="120" height="20" as="geometry" />
        </mxCell>
      </root>
    </mxGraphModel>
  </diagram>
</mxfile>
